<svg width="251" height="194" viewBox="0 0 251 194" fill="none" xmlns="http://www.w3.org/2000/svg">
<path d="M70.682 103.909C72.4492 105.221 74.8475 105.878 77.877 105.878C83.5825 105.878 88.9346 103.505 93.9332 98.7584L88.1015 86.5648C87.3946 87.7261 86.511 88.8117 85.4507 89.8215C84.4409 90.8313 83.4058 91.6392 82.3455 92.2451C81.2852 92.8005 80.3258 93.0782 79.4675 93.0782C78.7101 93.0782 78.1547 92.4723 77.8013 91.2605C77.4983 90.0487 77.3468 88.0543 77.3468 85.2773C77.3468 84.1665 77.3721 82.2983 77.4226 79.6728C77.5236 77.0473 77.7255 73.8916 78.0285 70.2057C79.1898 70.1552 80.3511 70.13 81.5124 70.13C83.431 70.13 85.3244 70.1805 87.1926 70.2815C89.1113 70.3319 90.9542 70.4582 92.7214 70.6601L94.2361 58.7695C92.1155 58.4665 89.7929 58.2646 87.2684 58.1636C84.7943 58.0121 82.1435 57.9364 79.316 57.9364C79.6694 55.5128 80.0734 53.0135 80.5278 50.4384C80.9822 47.8129 81.5124 45.1874 82.1183 42.5618L69.0916 41.4258C68.5866 44.6067 68.1322 47.6362 67.7283 50.5142C67.3244 53.3417 66.9457 56.043 66.5922 58.618C61.8461 59.1229 57.3776 59.9308 53.1868 61.0416L55.5347 72.9322C58.6651 72.2254 61.9218 71.6447 65.3047 71.1903C65.0523 74.7752 64.926 78.2338 64.926 81.5662C64.926 84.7976 65.027 87.8776 65.229 90.8061C65.4814 93.7346 66.0116 96.3349 66.8194 98.607C67.6273 100.879 68.9148 102.646 70.682 103.909Z" fill="black"/>
<path d="M99.7584 93.2297C99.6574 97.4204 99.5059 101.611 99.304 105.802H112.028C112.23 103.227 112.356 100.349 112.406 97.168C112.507 93.9365 112.558 90.5536 112.558 87.0193C113.366 81.8692 114.88 77.8551 117.102 74.9771C119.374 72.0486 122.126 70.5844 125.357 70.5844C126.317 70.5844 127.503 70.7611 128.917 71.1146C130.381 71.4175 131.745 71.9477 133.007 72.705L134.446 59.9055C132.729 59.0472 131.038 58.4665 129.371 58.1636C127.705 57.8606 126.342 57.7092 125.282 57.7092C122.505 57.7092 120.031 58.3403 117.859 59.6026C115.739 60.8144 113.871 62.4301 112.255 64.4497C112.154 62.4806 112.078 60.5619 112.028 58.6937L99.304 59.0724C99.5059 62.5058 99.6322 66.0654 99.6826 69.7513C99.7836 73.3867 99.8594 77.0725 99.9099 80.8089C99.9099 84.8986 99.8594 89.0389 99.7584 93.2297Z" fill="black"/>
<path fill-rule="evenodd" clip-rule="evenodd" d="M146.259 102.924C149.339 104.893 152.772 105.878 156.559 105.878C159.538 105.878 162.416 105.449 165.193 104.59C167.97 103.782 170.444 102.167 172.615 99.743C173.928 101.662 175.67 103.176 177.841 104.287C180.012 105.449 182.764 106.029 186.096 106.029L187.99 92.851H186.93C185.364 92.851 184.203 92.3966 183.446 91.4877C182.688 90.5284 182.183 89.3166 181.931 87.8524C181.729 86.3376 181.628 84.7976 181.628 83.2324C181.628 81.3138 181.704 79.1679 181.855 76.7948C182.007 74.4217 182.183 72.0486 182.385 69.6756C182.638 67.3025 182.941 65.1566 183.294 63.2379C183.648 61.3193 184.001 59.8803 184.354 58.921L171.404 56.7246C171.252 57.7849 171.075 58.8452 170.873 59.9055C168.096 59.0977 165.269 58.6937 162.391 58.6937C158.957 58.6937 155.676 59.2996 152.545 60.5114C149.415 61.6727 146.612 63.3642 144.138 65.5858C141.715 67.8074 139.796 70.4834 138.382 73.6139C136.969 76.6938 136.262 80.1525 136.262 83.9898C136.262 88.0796 137.145 91.7907 138.912 95.1231C140.73 98.405 143.179 101.005 146.259 102.924ZM151.636 91.3362C149.92 89.872 148.935 87.9281 148.683 85.5045C148.632 85.2521 148.607 84.9744 148.607 84.6714V83.7626C148.607 81.238 149.213 79.0164 150.424 77.0978C151.636 75.1791 153.302 73.6896 155.423 72.6293C157.594 71.5185 160.043 70.9631 162.77 70.9631C165.092 70.9631 167.314 71.367 169.434 72.1749C169.283 73.9926 169.157 75.8355 169.056 77.7036C168.955 79.5718 168.904 81.3895 168.904 83.1567C168.904 84.015 168.929 84.8481 168.98 85.656C167.869 88.0796 166.455 89.9982 164.739 91.412C163.022 92.7752 160.876 93.4569 158.301 93.4569C155.625 93.4569 153.403 92.75 151.636 91.3362Z" fill="black"/>
<path d="M193.482 114.36L204.842 120.419C208.478 116.178 212.063 111.583 215.597 106.635C219.131 101.737 222.514 96.7388 225.746 91.6392C229.028 86.4891 232.082 81.44 234.91 76.4919C237.788 71.4932 240.363 66.8228 242.635 62.4806L230.063 57.482C226.528 66.0654 222.035 74.7752 216.582 83.6111C214.713 80.9351 212.896 78.1328 211.129 75.2043C209.412 72.2759 207.821 69.3979 206.357 66.5704C204.943 63.7429 203.782 61.1173 202.873 58.6937L190.755 63.9953C192.018 66.7723 193.659 69.928 195.678 73.4624C197.698 76.9968 199.894 80.6069 202.267 84.2927C204.64 87.9281 207.014 91.3362 209.387 94.5172C206.963 98.0011 204.413 101.384 201.737 104.666C199.061 107.998 196.309 111.23 193.482 114.36Z" fill="black"/>
<path fill-rule="evenodd" clip-rule="evenodd" d="M21.3801 192.596L34.1039 193.732C34.2049 192.975 34.3058 192.091 34.4068 191.081C38.3956 192.596 42.4349 193.354 46.5247 193.354C52.6846 193.354 57.9357 192.016 62.2779 189.34C66.6706 186.663 70.0031 182.801 72.2752 177.752C74.5978 172.652 75.759 166.518 75.759 159.348C75.759 154.248 75.0522 149.83 73.6384 146.094C72.2752 142.358 70.3817 139.202 67.9582 136.627C65.5851 134.052 62.8586 132.007 59.7786 130.492C56.7491 128.927 53.5682 127.816 50.2358 127.16C46.9034 126.453 43.6214 126.099 40.39 126.099C36.1993 126.099 32.1347 126.402 28.1964 127.008C24.2581 127.614 20.9509 128.195 18.2749 128.75L20.547 141.625C21.6578 141.221 22.8696 140.868 24.1824 140.565L21.3801 192.596ZM37.6635 138.823H39.8599C40.4658 138.823 41.4503 138.899 42.8136 139.05C44.1768 139.151 45.7168 139.404 47.4335 139.808C49.2007 140.212 50.9932 140.843 52.8108 141.701C54.6285 142.509 56.2947 143.645 57.8095 145.109C59.3747 146.574 60.637 148.416 61.5963 150.638C62.5556 152.86 63.0353 155.561 63.0353 158.742C63.0353 162.731 62.4799 166.442 61.3691 169.875C60.2583 173.258 58.4406 175.985 55.916 178.055C53.442 180.125 50.16 181.16 46.0703 181.16C44.0506 181.16 42.1067 180.983 40.2385 180.63C38.4209 180.226 36.7547 179.771 35.2399 179.267C35.5429 174.874 35.8963 169.396 36.3002 162.832C36.7042 156.217 37.1586 148.214 37.6635 138.823Z" fill="black"/>
<path fill-rule="evenodd" clip-rule="evenodd" d="M101.273 190.173C105.161 191.94 109.478 192.823 114.224 192.823C118.617 192.823 122.656 192.016 126.342 190.4C130.028 188.784 133.208 186.487 135.885 183.508C138.561 180.478 140.631 176.919 142.095 172.829C143.559 168.739 144.291 164.245 144.291 159.348C144.291 155.258 143.66 151.269 142.398 147.381C141.136 143.494 139.217 140.01 136.642 136.93C134.067 133.85 130.785 131.401 126.796 129.583C122.807 127.715 118.112 126.781 112.709 126.781C107.508 126.781 102.99 127.74 99.1522 129.659C95.3654 131.578 92.2349 134.153 89.7609 137.384C87.2868 140.565 85.4439 144.125 84.2321 148.063C83.0203 151.951 82.4144 155.914 82.4144 159.954C82.4144 164.346 83.1718 168.512 84.6865 172.45C86.2012 176.389 88.3724 179.898 91.1999 182.978C94.0274 186.058 97.385 188.456 101.273 190.173ZM122.631 177.979C120.056 179.443 117.253 180.175 114.224 180.175C111.649 180.175 109.225 179.67 106.953 178.661C104.681 177.6 102.661 176.187 100.894 174.419C99.1774 172.602 97.8142 170.532 96.8044 168.209C95.7945 165.836 95.2896 163.337 95.2896 160.711C95.2896 158.035 95.5926 155.435 96.1985 152.91C96.8044 150.386 97.8142 148.113 99.2279 146.094C100.642 144.024 102.51 142.383 104.832 141.171C107.155 139.959 110.008 139.353 113.391 139.353C116.37 139.353 119.222 140.035 121.949 141.398C124.675 142.761 126.897 144.857 128.614 147.684C130.33 150.512 131.189 154.122 131.189 158.515C131.189 163.614 130.406 167.755 128.841 170.935C127.276 174.116 125.206 176.464 122.631 177.979Z" fill="black"/>
<path d="M165.951 188.506C169.536 190.375 173.954 191.309 179.205 191.309C183.396 191.309 186.855 190.728 189.581 189.567C192.358 188.405 194.605 186.916 196.322 185.098C196.17 186.815 196.019 188.355 195.867 189.718C195.766 191.081 195.691 192.091 195.64 192.748L208.591 193.051C208.692 191.031 208.793 188.33 208.894 184.947C208.995 181.564 209.046 178.13 209.046 174.647C209.046 173.384 209.02 172.147 208.97 170.935V167.452C211.292 167.603 216.47 168.057 217.53 168.36L217.833 155.94C215.359 155.334 208.162 154.804 203.214 154.804C199.629 154.804 195.867 154.98 191.929 155.334C188.041 155.637 184.608 156.116 181.629 156.773L182.916 169.042C184.482 168.79 186.249 168.562 188.218 168.36C190.238 168.108 192.333 167.906 194.504 167.755C193.494 171.238 191.677 173.914 189.051 175.783C186.426 177.651 183.093 178.585 179.054 178.585C175.772 178.585 173.02 177.752 170.799 176.086C168.627 174.419 166.986 172.223 165.876 169.496C164.815 166.77 164.285 163.791 164.285 160.56C164.285 157.833 164.639 155.182 165.345 152.607C166.103 150.032 167.264 147.71 168.829 145.639C170.395 143.569 172.414 141.928 174.888 140.717C177.362 139.454 180.316 138.823 183.749 138.823C186.93 138.823 189.606 139.278 191.778 140.186C193.949 141.095 195.817 142.282 197.382 143.746C198.998 145.21 200.513 146.775 201.926 148.442L211.393 138.217C209.879 136.551 207.859 134.784 205.334 132.916C202.86 130.997 199.881 129.381 196.398 128.069C192.914 126.705 188.849 126.024 184.204 126.024C178.7 126.024 173.878 127.033 169.738 129.053C165.648 131.073 162.215 133.749 159.438 137.081C156.711 140.414 154.667 144.125 153.303 148.214C151.94 152.304 151.258 156.445 151.258 160.635C151.258 164.17 151.738 167.729 152.697 171.314C153.657 174.899 155.197 178.206 157.317 181.236C159.489 184.265 162.366 186.689 165.951 188.506Z" fill="black"/>
<path d="M227.072 3.66243C226.39 3.52418 224.224 3.1103 222.388 3.03864C220.177 2.95236 218.682 6.32376 221.363 7.69014C221.87 7.94857 222.42 8.04472 222.979 8.03075C222.927 8.1761 222.876 8.32333 222.827 8.47201C220.832 9.03406 218.036 9.97202 217.019 11.0419C215.37 12.7772 217.392 16.6723 221.255 16.1005L221.284 16.0961L221.316 16.091C220.871 17.9991 219.922 18.7372 218.044 19.894C216.424 20.2474 215.075 20.4823 213.869 20.6924C210.15 21.3401 207.78 21.753 202.968 24.6746C200.514 26.1643 199.501 28.5273 199.409 31.0144C193.4 32.842 189.281 32.7414 183.315 30.468C182.401 30.12 181.424 30.8625 181.552 31.8341C181.61 32.2803 181.902 32.6637 182.318 32.833C189.371 35.7056 193.627 35.8069 199.697 33.9659C200.14 35.9456 201.044 37.8154 202.14 39.1888L198.44 45.8327C198.106 46.4326 198.321 47.1909 198.919 47.5266L199.165 47.6647C199.763 48.0004 200.519 47.7861 200.853 47.1862L204.279 41.0335C204.698 41.2207 205.221 41.3563 205.827 41.4468L204.915 44.5782C204.723 45.2378 205.1 45.9293 205.758 46.1226L206.029 46.2022C206.686 46.3956 207.375 46.0176 207.567 45.358L208.668 41.5818C213.368 41.4664 220.058 40.0644 224.606 38.6783L224.617 43.8237C224.618 44.5111 225.175 45.0677 225.86 45.0669L226.142 45.0666C226.827 45.0658 227.382 44.5079 227.38 43.8205L227.368 37.7349C227.653 37.6231 227.915 37.5137 228.152 37.4074L231.944 44.9817C232.252 45.5962 232.997 45.8446 233.61 45.5365L233.862 45.4096C234.474 45.1015 234.721 44.3536 234.413 43.7392L230.406 35.7345C230.747 35.407 231.014 35.1256 231.253 34.8225C231.858 34.0565 232.289 33.1518 233.308 31.0122C233.641 30.3147 234.035 29.4858 234.519 28.4877C235.476 26.5137 236.133 25.0519 236.64 23.9248L236.643 23.9173L236.648 23.9066L236.65 23.9019L236.65 23.9007C237.786 21.3726 238.162 20.5365 239.475 19.3643C240.023 19.1034 240.524 18.8796 240.99 18.6714L240.991 18.671C242.711 17.9024 243.952 17.3478 245.365 15.9348C246.11 14.9949 246.589 14.3022 246.622 13.2024C246.849 13.0165 246.974 12.6253 246.918 12.1952C246.843 11.6272 246.48 11.2064 246.106 11.2555C246.07 11.2602 246.036 11.2691 246.002 11.2818C243.609 9.64382 242.829 9.4719 241.69 9.22081L241.569 9.19411L241.461 9.17008C241.382 9.15231 241.301 9.13374 241.217 9.11392C240.496 8.92381 240.152 8.73609 239.644 8.2531L237.09 5.15672C235.541 3.33926 230.476 2.64654 227.072 3.66243Z" fill="black"/>
<path d="M12.0126 43.3367C51.8033 30.5857 183.537 17.8831 225.104 17.2285V17.9859C184.371 19.666 84.8351 31.064 38.2234 46.9552C27.5074 50.1966 21.8422 52.104 16.1197 55.5481C16.0145 55.6053 15.9127 55.6635 15.8143 55.7227C14.4028 56.5408 13.4808 57.3895 13.0477 58.269C12.6571 59.0913 12.4985 59.7522 12.5714 60.2519C12.6951 61.1012 13.119 61.9068 13.8422 62.6688C14.6152 63.4237 16.1705 64.1155 18.5075 64.7443C19.4645 65.013 20.7369 65.3377 22.3231 65.7188C23.2561 65.9044 24.242 66.1074 25.2805 66.3277C26.0549 66.4919 26.8591 66.666 27.6923 66.8497C29.6928 67.2725 31.6508 67.7525 33.5662 68.2897C35.5235 68.7698 37.3102 69.3003 38.9256 69.8812C40.8702 70.6182 42.8973 71.5729 45.007 72.7451C47.1167 73.9173 48.9781 75.4828 50.5903 77.4419C52.245 79.3438 53.2941 81.8187 53.7383 84.8664C54.0078 86.715 53.9572 88.8144 53.5853 91.1647C53.206 93.4651 52.2918 95.7669 50.8412 98.0703C49.3913 100.374 47.212 102.401 44.3032 104.151C41.3952 105.902 37.518 107.13 32.6715 107.837C28.4741 108.448 24.4866 108.392 20.7065 107.667C16.9273 106.942 13.4396 105.767 10.2428 104.141C7.08918 102.457 4.26356 100.573 1.76518 98.488L7.52285 85.4795C8.42035 87.0835 9.73144 88.5508 11.4561 89.8812C13.2305 91.2043 15.229 92.3161 17.4523 93.2167C19.6756 94.1173 21.9628 94.7534 24.3131 95.1252C26.7132 95.4897 29.0125 95.5117 31.211 95.1912C34.5082 94.7107 37.0548 93.8038 38.8509 92.4705C40.6389 91.0873 41.4019 89.4963 41.1397 87.6977C40.9358 86.2988 40.3189 85.215 39.2884 84.4468C38.301 83.6213 37.192 83.0176 35.9629 82.6354C35.3711 82.4161 34.819 82.2103 34.3073 82.0175C33.7929 81.824 33.3193 81.6436 32.8857 81.4767C32.5945 81.3807 32.197 81.2688 31.6925 81.1411C31.0818 80.9866 30.3144 80.809 29.3913 80.6084C28.3653 80.3438 27.259 80.071 26.0715 79.7902C25.357 79.6212 24.6129 79.4493 23.8393 79.2745C21.7818 78.809 19.8311 78.379 17.9879 77.9843C16.9628 77.7381 16.0586 77.5134 15.2748 77.3104C14.6429 77.1468 14.0897 76.9971 13.6147 76.8613C5.6821 74.599 1.20603 69.9704 0.186498 62.9754C-0.141205 60.7271 -0.0371353 58.4668 0.499439 56.1945C1.0785 53.865 2.13609 51.67 3.67288 49.609C5.20896 47.5483 7.29954 45.7895 9.94458 44.3323C10.596 43.9735 11.2853 43.6416 12.0126 43.3367Z" fill="black"/>
<ellipse cx="220.991" cy="157.835" rx="4.92288" ry="6.05893" transform="rotate(8.83539 220.991 157.835)" fill="black"/>
<ellipse cx="180.42" cy="158.287" rx="5.30157" ry="6.05893" fill="black"/>
<ellipse cx="219.667" cy="167.595" rx="5.11223" ry="5.68025" transform="rotate(8.83539 219.667 167.595)" fill="black"/>
<ellipse cx="180.23" cy="168.135" rx="5.49091" ry="5.68025" fill="black"/>
</svg>
